<svg xmlns="http://www.w3.org/2000/svg"  viewBox="0 0 48 48" width="48px" height="48px" baseProfile="basic"><path fill="#febf10" d="M4.69,39.806c0.194,0.796,0.446,1.601,0.954,2.243c0.704,0.891,1.812,1.363,2.913,1.642	c2.863,0.727,5.876,0.372,8.808,0.012c1.386-0.17,13.819-1.201,18.611-0.712c1.395,0.142,2.8,0.402,4.19,0.219	s2.81-0.911,3.368-2.198c0.33-0.761,0.325-1.62,0.31-2.45c-0.085-4.748-0.292-9.494-0.619-14.232	c-0.087-1.258-0.182-2.516-0.232-3.776c-0.098-2.51-0.014-5.027,0.254-7.525c0.165-1.546,0.4-3.115,0.126-4.646	s-1.171-3.054-2.625-3.606c-0.808-0.306-1.698-0.286-2.561-0.262C35.194,4.6,25.056,4.888,23.412,4.758	c-3.217-0.255-7.435-0.51-10.652-0.764c-1.304-0.103-2.622-0.206-3.915-0.005S6.269,4.725,5.409,5.71	c-1.481,1.696-1.373,4.204-1.307,6.455c0.092,3.118,0.944,6.242,0.559,9.338C4.434,23.329,3.739,35.897,4.69,39.806z"/><path d="M4.207,39.939c0.347,1.388,0.917,2.62,2.165,3.405c1.247,0.785,2.798,1.061,4.241,1.197	c2.501,0.236,4.965-0.174,7.446-0.408c3.848-0.363,7.717-0.602,11.581-0.721c1.94-0.06,3.894-0.107,5.832,0.037	c2.644,0.196,5.934,1.004,7.939-1.321c0.962-1.116,0.953-2.538,0.927-3.932c-0.034-1.76-0.085-3.52-0.152-5.279	c-0.136-3.574-0.382-7.139-0.605-10.708c-0.218-3.471-0.065-6.885,0.295-10.341c0.277-2.654,0.115-6.16-2.709-7.453	C40.051,3.904,38.799,4,37.604,4.033c-0.828,0.023-1.657,0.046-2.485,0.068c-2.16,0.057-4.321,0.111-6.482,0.15	c-1.637,0.03-3.285,0.089-4.922,0.024c-2.706-0.108-5.418-0.38-8.12-0.571c-2.982-0.21-6.489-0.966-9.229,0.601	C3.797,5.773,3.518,8.711,3.58,11.385c0.078,3.389,0.951,6.763,0.577,10.155c-0.141,1.275-0.199,2.561-0.262,3.842	c-0.205,4.134-0.392,8.347,0.001,12.476C3.961,38.555,4.046,39.256,4.207,39.939c0.148,0.626,1.113,0.361,0.964-0.266	c-0.365-1.542-0.397-3.176-0.44-4.753c-0.056-2.084-0.029-4.17,0.033-6.254c0.052-1.762,0.129-3.523,0.243-5.282	c0.114-1.75,0.32-3.464,0.182-5.224c-0.239-3.064-0.905-6.152-0.538-9.237c0.165-1.39,0.694-2.734,1.887-3.549	c1.316-0.9,2.957-1.041,4.505-0.989c4.738,0.157,9.463,0.918,14.206,0.907c3.828-0.009,7.657-0.129,11.483-0.234	c0.844-0.023,1.697-0.081,2.54-0.045c1.511,0.064,2.63,0.865,3.241,2.242c0.609,1.371,0.529,2.923,0.385,4.381	c-0.165,1.678-0.351,3.346-0.412,5.033c-0.119,3.301,0.18,6.579,0.381,9.87c0.205,3.351,0.349,6.705,0.433,10.061	c0.02,0.793,0.048,1.588,0.047,2.381c0,0.78-0.05,1.592-0.507,2.256c-0.841,1.22-2.452,1.554-3.838,1.537	c-1.256-0.016-2.496-0.258-3.748-0.34c-0.879-0.057-1.761-0.071-2.642-0.072c-4.049-0.003-8.104,0.256-12.139,0.568	c-1.154,0.089-2.309,0.177-3.459,0.317c-3.046,0.37-6.561,0.854-9.471-0.413c-1.412-0.614-2.015-1.721-2.374-3.16	C5.016,39.049,4.051,39.314,4.207,39.939z"/><path fill="#373837" d="M23.997,9.549c1.658-0.031,3.302,0.272,4.932,0.574c1.615,0.299,3.28,0.619,4.643,1.534	c0.711,0.477,1.312,1.1,1.985,1.63c0.467,0.368,0.969,0.692,1.422,1.078c1.937,1.647,2.811,4.303,2.754,6.845	s-0.944,4.996-2.039,7.291c-0.542,1.138-1.156,2.273-2.084,3.127c-1.049,0.965-2.418,1.495-3.771,1.945	c-3.084,1.027-6.33,1.757-9.569,1.487c-0.598-0.05-1.23-0.128-1.773,0.128c-0.384,0.181-0.675,0.509-0.974,0.81	c-1.517,1.528-3.466,2.537-5.381,3.521c0.399-2.063,0.798-4.127,1.196-6.19c0.021-0.108,0.042-0.222,0.012-0.328	c-0.066-0.235-0.337-0.333-0.567-0.414c-1.226-0.433-2.235-1.33-3.091-2.309c-2.296-2.626-3.728-6.11-3.445-9.587	c0.284-3.477,2.452-6.865,5.696-8.146C16.681,10.991,20.852,9.608,23.997,9.549z M34.79,23.68c-0.31-0.39-0.63-0.79-0.95-1.18	c-0.06-0.07-0.13-0.17-0.1-0.27c0.02-0.05,0.05-0.08,0.09-0.12c0.33-0.32,0.66-0.65,1-0.97c0.26-0.26,0.54-0.53,0.7-0.87	c0.17-0.33,0.2-0.76-0.01-1.07c-0.26-0.39-0.83-0.48-1.27-0.33c-0.45,0.16-0.81,0.5-1.15,0.82c-0.45,0.44-0.9,0.87-1.35,1.31	c0.04-0.64,0.07-1.31-0.25-1.86c-0.32-0.55-1.14-0.85-1.61-0.42c-0.31,0.28-0.35,0.73-0.38,1.14c-0.09,1.45-0.16,3.53-0.19,5.17	c-0.24-0.14-0.55-0.18-0.83-0.17c-0.43,0.01-0.86,0.1-1.27-0.01c-0.07-0.02-0.13-0.05-0.18-0.09c-0.09-0.09-0.1-0.23-0.11-0.36	c-0.05-1.39-0.12-2.79-0.21-4.19c-0.03-0.37-0.06-0.75-0.21-1.1c-0.15-0.34-0.45-0.64-0.83-0.69c-0.49-0.06-0.94,0.35-1.11,0.82	c-0.16,0.46-0.12,0.97-0.09,1.47c0.08,1.415,0.09,3.346-0.019,5.052c-0.079-0.23-0.223-0.449-0.341-0.672	c-0.74-1.37-1.28-2.85-1.61-4.37c-0.12-0.54-0.21-1.09-0.48-1.57c-0.26-0.48-0.74-0.88-1.29-0.89c-0.79,0-1.27,0.81-1.73,1.46	c-0.05,0.06-0.1,0.14-0.15,0.22c0.06-0.15,0.1-0.32,0.1-0.49c-0.01-0.75-0.81-1.07-1.64-1.21c-1.36-0.08-2.06-0.14-3.41,0.03	c-0.64,0.09-1.32,0.22-1.77,0.68s-0.5,1.36,0.07,1.67c0.53,0.3,1.35-0.01,1.69,0.49c0.1,0.15,0.13,0.33,0.15,0.51	c0.12,1.03,0.18,2.07,0.17,3.11c-0.01,0.64-0.03,1.33,0.31,1.88c0.33,0.56,1.17,0.85,1.63,0.39c0.24-0.25,0.3-0.62,0.34-0.97	c0.14-1.31,0.2-2.64,0.18-3.96c-0.01-0.45,0.05-1.01,0.47-1.14c0.14-0.04,0.28-0.03,0.42-0.03c0.42-0.01,0.81-0.25,1.07-0.58	c-0.9,1.63-2.25,5-2.1,5.77c0.03,0.14,0.48,1.07,1.33,1.1c0.89,0.04,1.12-0.83,1.49-1.29c0.5-0.61,1.43-0.58,2.22-0.5	c0.22,0.03,0.45,0.06,0.64,0.17c0.17,0.11,0.3,0.27,0.43,0.43c0.19,0.23,0.41,0.44,0.65,0.62c0.17,0.13,0.37,0.25,0.58,0.24	c0.283-0.016,0.525-0.286,0.605-0.579l0.025,0.49c1,0.05,1.99,0.1,2.99,0.15c0.56,0.03,1.15,0.05,1.64-0.22	c0.23-0.13,0.42-0.35,0.52-0.59l0.22,0.2c0.36,0.67,1.47,0.74,1.91,0.11c0.48-0.68,0.09-1.61,0.03-2.45	c0.54,0.81,1.15,1.57,1.83,2.28c0.26,0.27,0.57,0.55,0.95,0.59c0.68,0.08,1.2-0.7,1.14-1.38C35.67,24.78,35.23,24.21,34.79,23.68z"/><path d="M44.337,38.195c-0.034-1.76-0.085-3.52-0.152-5.279c-0.136-3.574-0.381-7.139-0.605-10.708	c-0.218-3.471-0.065-6.885,0.295-10.341c0.277-2.654,0.115-6.16-2.709-7.453C40.051,3.904,38.799,4,37.604,4.033	c-0.829,0.023-1.657,0.046-2.485,0.068c-2.161,0.057-4.321,0.111-6.482,0.15C27,4.28,25.352,4.34,23.715,4.274	c-2.706-0.108-5.418-0.38-8.12-0.571c-2.982-0.21-6.489-0.966-9.229,0.601C3.797,5.773,3.518,8.711,3.58,11.385	c0.078,3.389,0.951,6.763,0.577,10.155c-0.141,1.275-0.199,2.561-0.262,3.842c-0.205,4.134-0.392,8.347,0.001,12.476	c0.066,0.698,0.151,1.399,0.312,2.081c0.347,1.388,0.917,2.62,2.165,3.405c1.247,0.785,2.798,1.061,4.241,1.197	c2.501,0.236,4.965-0.174,7.446-0.408c3.849-0.362,7.717-0.602,11.581-0.721c1.94-0.06,3.894-0.107,5.832,0.037	c2.644,0.196,5.934,1.004,7.939-1.321C44.373,41.011,44.364,39.589,44.337,38.195z M42.842,41.236	c-0.841,1.22-2.452,1.554-3.838,1.537c-1.256-0.016-2.496-0.258-3.748-0.34c-0.879-0.057-1.761-0.071-2.642-0.072	c-4.049-0.003-8.104,0.256-12.139,0.568c-1.154,0.089-2.309,0.177-3.459,0.317c-3.046,0.37-6.561,0.854-9.471-0.413	c-1.412-0.614-2.014-1.721-2.374-3.16c-0.365-1.542-0.397-3.176-0.44-4.753c-0.057-2.084-0.029-4.17,0.033-6.254	c0.052-1.762,0.129-3.523,0.243-5.282c0.114-1.75,0.32-3.464,0.182-5.224c-0.239-3.064-0.905-6.152-0.538-9.237	c0.165-1.39,0.694-2.734,1.887-3.549c1.316-0.9,2.957-1.041,4.505-0.989c4.738,0.157,9.463,0.918,14.206,0.907	c3.828-0.009,7.656-0.129,11.483-0.234c0.844-0.023,1.697-0.081,2.541-0.045c1.511,0.064,2.63,0.865,3.241,2.242	c0.609,1.371,0.529,2.923,0.385,4.381c-0.165,1.678-0.351,3.346-0.412,5.033c-0.119,3.301,0.18,6.579,0.381,9.87	c0.205,3.351,0.349,6.705,0.433,10.061c0.02,0.793,0.048,1.588,0.047,2.381C43.349,39.76,43.299,40.572,42.842,41.236z"/><path d="M38.968,15.999c-0.51-0.881-1.18-1.643-1.982-2.267c-0.916-0.713-1.795-1.469-2.712-2.179	c-1.848-1.432-4.255-1.761-6.495-2.143C25.26,8.98,22.862,8.966,20.37,9.548c-2.318,0.541-4.598,1.399-6.676,2.564	c-0.012,0.007-0.017,0.017-0.028,0.024c-3.539,1.522-5.777,5.154-5.942,8.963c-0.093,2.137,0.442,4.269,1.376,6.183	c0.933,1.911,2.316,3.806,4.078,5.029c0.251,0.175,0.514,0.333,0.789,0.469c0.21,0.104,0.588,0.173,0.764,0.32	c0.288,0.239-0.143,1.487-0.219,1.881c-0.284,1.468-0.567,2.936-0.851,4.404c-0.084,0.433,0.333,0.771,0.734,0.565	c2.015-1.036,3.997-2.111,5.61-3.729c0.439-0.44,0.813-0.704,1.458-0.712c0.623-0.008,1.249,0.093,1.873,0.105	c1.231,0.023,2.46-0.091,3.674-0.289c2.333-0.38,4.742-1.025,6.895-2.013c2.134-0.979,3.342-2.687,4.315-4.761	C40.043,24.671,41.26,19.963,38.968,15.999z M37.547,27.637c-0.437,0.965-0.899,1.948-1.536,2.801	c-0.657,0.879-1.53,1.504-2.516,1.967c-2.019,0.948-4.324,1.536-6.514,1.915c-1.358,0.235-2.74,0.342-4.117,0.277	c-1.056-0.049-2.125-0.274-3.028,0.423c-0.438,0.338-0.797,0.772-1.213,1.137c-0.479,0.42-0.994,0.795-1.528,1.142	c-0.73,0.474-1.494,0.889-2.265,1.294c0.17-0.878,0.339-1.755,0.509-2.633c0.115-0.595,0.23-1.19,0.345-1.786	c0.081-0.42,0.279-0.946,0.125-1.368c-0.128-0.349-0.424-0.518-0.75-0.652c-0.521-0.214-0.999-0.436-1.459-0.767	c-0.871-0.626-1.611-1.468-2.246-2.326c-2.439-3.29-3.533-7.763-1.739-11.603c0.909-1.947,2.455-3.613,4.465-4.434	c0.014-0.006,0.022-0.017,0.035-0.023c0.028-0.01,0.056-0.011,0.084-0.027c3.471-1.946,7.684-3.258,11.688-2.835	c1.154,0.122,2.299,0.345,3.438,0.564c1.075,0.206,2.168,0.44,3.163,0.912c1.012,0.48,1.773,1.264,2.633,1.957	c0.815,0.657,1.698,1.201,2.366,2.023C40.307,19.07,39.228,23.927,37.547,27.637z"/><path d="M17.456,17.753c-0.023-0.004-0.041,0.002-0.063,0.001c-0.024-0.005-0.043-0.017-0.07-0.018	c-1.091-0.064-2.163-0.113-3.252,0.017c-0.928,0.111-2.043,0.296-2.549,1.193c-0.409,0.726-0.278,1.769,0.528,2.153	c0.391,0.186,0.802,0.119,1.211,0.204c0.283,0.059,0.272,0.218,0.307,0.488c0.044,0.343,0.069,0.69,0.093,1.035	c0.044,0.634,0.06,1.268,0.057,1.904c-0.003,0.547-0.017,1.118,0.156,1.645c0.277,0.842,1.138,1.553,2.067,1.305	c1.132-0.302,1.083-1.75,1.152-2.678c0.047-0.632,0.076-1.265,0.085-1.899c0.005-0.346-0.003-0.691-0.002-1.037	c0-0.168-0.028-0.422,0.063-0.571c0.107-0.174,0.443-0.093,0.649-0.134c0.263-0.052,0.511-0.167,0.728-0.323	c0.443-0.318,0.752-0.805,0.822-1.347C19.594,18.484,18.461,17.945,17.456,17.753z M18.271,19.999	c-0.484,0.648-1.401,0.185-1.847,0.908c-0.437,0.707-0.232,1.758-0.252,2.542c-0.012,0.49-0.036,0.979-0.072,1.467	c-0.034,0.473-0.008,1.055-0.175,1.505c-0.123,0.332-0.379,0.37-0.676,0.208c-0.379-0.207-0.481-0.662-0.517-1.06	c-0.088-0.965-0.01-1.946-0.083-2.915c-0.059-0.784,0.005-1.886-0.865-2.236c-0.445-0.18-1.512,0.069-1.491-0.626	c0.027-0.924,1.431-1.007,2.094-1.073c0.959-0.095,1.911-0.043,2.87,0.014C17.901,18.862,18.877,19.186,18.271,19.999z"/><path d="M19.443,19.969c0.261-0.447,0.65-1.167,1.241-1.203c0.707-0.043,1.037,0.804,1.18,1.353	c0.192,0.738,0.327,1.483,0.557,2.212c0.23,0.733,0.512,1.45,0.834,2.148c0.11,0.239,1.054,1.82,0.559,1.864	c-0.222,0.02-0.639-0.504-0.764-0.645c-0.243-0.274-0.459-0.535-0.813-0.668c-0.557-0.209-1.299-0.215-1.882-0.14	c-0.6,0.077-1.122,0.329-1.48,0.828c-0.258,0.36-0.467,1.008-1.007,0.971c-0.258-0.017-0.473-0.19-0.628-0.385	c-0.061-0.076-0.109-0.161-0.159-0.244c-0.016-0.027-0.029-0.055-0.044-0.083c-0.074-0.144,0.018,0.06-0.011-0.024	c-0.207-0.605-1.174-0.345-0.964,0.266c0.396,1.155,1.851,1.999,2.898,1.074c0.458-0.405,0.612-1.161,1.229-1.356	c0.361-0.114,0.761-0.09,1.134-0.059c0.166,0.014,0.364,0.012,0.521,0.073c0.261,0.101,0.414,0.368,0.6,0.565	c0.519,0.549,1.387,1.219,2.101,0.57c0.757-0.687,0.315-1.642-0.072-2.389c-0.451-0.869-0.823-1.774-1.112-2.709	c-0.286-0.925-0.379-1.934-0.767-2.823c-0.361-0.828-1.158-1.522-2.111-1.38c-0.903,0.135-1.476,0.943-1.903,1.677	C18.255,20.022,19.119,20.526,19.443,19.969L19.443,19.969z"/><path d="M21.442,22.784c-0.071-0.112-0.13-0.23-0.184-0.35c-0.073-0.185-0.208-0.781-0.244-0.842	c-0.061-0.104-0.18-0.203-0.299-0.23c-0.128-0.029-0.272-0.023-0.385,0.05c-0.034,0.026-0.067,0.052-0.101,0.078	c-0.062,0.062-0.105,0.136-0.129,0.221c-0.169,0.422-0.338,0.845-0.507,1.267c-0.057,0.144,0.001,0.321,0.09,0.436	c0.09,0.116,0.239,0.209,0.393,0.197c0.312-0.025,0.624-0.05,0.935-0.075c0.18-0.014,0.337-0.086,0.432-0.248	C21.53,23.139,21.537,22.933,21.442,22.784z"/><path d="M24.956,25.779c0.097-1.452,0.113-2.911,0.057-4.365c-0.024-0.629-0.214-1.451,0.044-2.046	c0.097-0.223,0.341-0.51,0.615-0.439c0.347,0.09,0.461,0.552,0.507,0.854c0.236,1.553,0.112,3.155,0.259,4.716	c0.072,0.762,0.742,0.922,1.41,0.898c0.328-0.012,1.551-0.237,1.388,0.435c-0.185,0.758-1.334,0.605-1.901,0.577	c-0.94-0.046-1.881-0.092-2.821-0.139c-0.643-0.032-0.642,0.968,0,1c1.019,0.05,2.038,0.105,3.057,0.15	c0.8,0.035,1.699-0.012,2.266-0.658c0.466-0.531,0.593-1.365,0.082-1.913c-0.633-0.68-1.506-0.4-2.31-0.451	c-0.073-0.005-0.351-0.116-0.217,0.014c0.095,0.092,0.037-0.084,0.034-0.178c-0.009-0.224-0.017-0.447-0.026-0.671	c-0.023-0.559-0.05-1.118-0.081-1.676c-0.049-0.89,0.018-1.926-0.275-2.778c-0.247-0.718-0.928-1.341-1.734-1.161	c-0.838,0.186-1.268,0.996-1.343,1.79c-0.089,0.941,0.066,1.933,0.075,2.879c0.01,1.055-0.016,2.109-0.086,3.162	C23.913,26.422,24.913,26.419,24.956,25.779L24.956,25.779z"/><path d="M36.107,24.836c-0.237-0.667-0.71-1.207-1.15-1.748c-0.127-0.156-0.254-0.312-0.381-0.469	c-0.06-0.074-0.14-0.209-0.221-0.306c0.037-0.041,0.071-0.086,0.104-0.118c0.167-0.162,0.333-0.324,0.5-0.486	c0.487-0.473,1.033-0.964,1.173-1.661c0.131-0.655-0.146-1.322-0.769-1.602c-0.677-0.304-1.414-0.087-1.982,0.339	c-0.409,0.307-0.786,0.666-1.154,1.033c-0.074-0.539-0.266-1.046-0.717-1.404c-0.637-0.506-1.604-0.568-2.129,0.131	c-0.262,0.349-0.328,0.778-0.362,1.202c-0.046,0.565-0.066,1.135-0.092,1.701c-0.052,1.165-0.082,2.331-0.092,3.498	c-0.006,0.644,0.994,0.644,1,0c0.015-1.695,0.059-3.394,0.177-5.086c0.034-0.496,0.206-1.112,0.809-0.719	c0.574,0.375,0.467,1.268,0.433,1.855c-0.026,0.447,0.557,0.64,0.854,0.354c0.57-0.551,1.119-1.149,1.728-1.657	c0.284-0.237,1.247-0.748,1.332-0.028c0.075,0.64-0.856,1.277-1.249,1.66c-0.198,0.193-0.484,0.398-0.609,0.65	c-0.161,0.322-0.023,0.621,0.179,0.881c0.441,0.566,0.944,1.093,1.346,1.688c0.314,0.465,0.624,1.114,0.196,1.613	c-0.455,0.531-1.032-0.259-1.331-0.586c-0.531-0.581-1.011-1.201-1.45-1.855c-0.252-0.375-0.979-0.28-0.932,0.252	c0.054,0.608,0.426,1.519,0.106,2.094c-0.227,0.409-0.885,0.371-1.116-0.01c-0.333-0.55-1.198-0.048-0.864,0.505	c0.487,0.803,1.632,1.048,2.404,0.496c0.494-0.353,0.64-0.835,0.653-1.353c0.099,0.119,0.193,0.244,0.296,0.36	c0.45,0.511,0.959,1.147,1.671,1.265C35.834,27.552,36.493,25.924,36.107,24.836z"/><path d="M18.87,19.929c-0.241-0.141-0.539-0.05-0.684,0.179c-0.192,0.304-0.359,0.627-0.537,0.941	c-0.024-0.03-0.048-0.06-0.072-0.089c-0.264-0.33-0.892-0.063-0.854,0.354c0.078,0.834-0.048,1.656-0.412,2.41	c0.001,0.001,0.003,0.001,0.004,0.002c-0.017,0.04-0.038,0.078-0.054,0.118c-0.094,0.227,0.083,0.507,0.289,0.59	c0.215,0.086,0.514,0.023,0.624-0.205c0.019-0.039,0.031-0.081,0.049-0.12c0,0,0.001,0,0.001,0.001	c0.003-0.007,0.028-0.067,0.034-0.082c0.006-0.014,0.019-0.044,0.021-0.049c0.031-0.072,0.063-0.144,0.095-0.216	c0.068-0.152,0.138-0.303,0.209-0.453c0.152-0.32,0.31-0.636,0.473-0.95c0.309-0.594,0.634-1.18,0.992-1.745	C19.194,20.384,19.097,20.062,18.87,19.929z"/></svg>